<svg version="1.1" id="Layer_1" xmlns="http://www.w3.org/2000/svg" xmlns:xlink="http://www.w3.org/1999/xlink" x="0px" y="0px"
	 width="100%" viewBox="0 0 999 288" enable-background="new 0 0 999 288" xml:space="preserve">
<path fill="#22B07D" opacity="1.000000" stroke="none" 
	d="
M1.000000,140.468658 
	C2.342331,139.158249 3.861319,138.504318 4.993571,137.439224 
	C8.269191,134.357956 11.372105,131.093964 14.573094,127.932350 
	C40.381981,102.440910 66.184456,76.942909 92.054497,51.513657 
	C93.238365,50.349968 95.046356,49.112785 96.568787,49.106270 
	C128.888046,48.967983 161.208038,49.001499 194.697052,49.001499 
	C193.349258,50.716953 192.623962,51.837303 191.710175,52.773697 
	C176.964996,67.883591 162.175262,82.950027 147.439285,98.068863 
	C137.238647,108.534523 127.101845,119.062416 116.941765,129.567581 
	C107.476700,139.354126 98.021782,149.150497 88.556534,158.936890 
	C78.396271,169.441849 68.226669,179.937790 58.065727,190.442123 
	C48.368160,200.467407 38.675323,210.497284 28.982590,220.527252 
	C19.869911,229.956970 10.760103,239.389465 1.324517,248.910370 
	C1.000000,212.979111 1.000000,176.958206 1.000000,140.468658 
z"/>
<path fill="#22B07D" opacity="1.000000" stroke="none" 
	d="
M67.531342,1.000000 
	C67.999985,13.977363 68.112122,26.956795 67.872780,39.929741 
	C67.838905,41.766045 66.499001,44.014870 65.073318,45.317024 
	C56.695820,52.968712 48.191204,60.486668 39.581814,67.877739 
	C27.025673,78.657059 14.344568,89.290833 1.358369,99.993324 
	C1.000000,67.087189 1.000000,34.174374 1.000000,1.000000 
	C23.020205,1.000000 45.041443,1.000000 67.531342,1.000000 
z"/>
<path fill="#22B07D" opacity="1.000000" stroke="none" 
	d="
M327.833374,128.998703 
	C327.880371,145.362518 327.927368,161.726349 327.728455,178.646957 
	C327.264008,179.366623 327.109161,179.576492 327.018036,179.833359 
	C317.648651,179.880371 308.279266,179.927383 298.353088,179.728455 
	C297.633392,179.264008 297.423492,179.109207 297.166595,179.018097 
	C297.111053,146.621078 297.050415,114.224052 297.003265,81.827011 
	C296.990204,72.854637 297.017090,63.882206 297.271545,54.353035 
	C297.735962,53.633347 297.890778,53.423477 297.981964,53.166653 
	C307.351349,53.119637 316.720734,53.072624 326.646912,53.271545 
	C327.366608,53.735985 327.576508,53.890793 327.833405,53.981907 
	C327.894135,71.327820 327.954865,88.673737 327.746094,106.633141 
	C326.694275,108.153801 325.911926,109.060966 324.915375,110.216515 
	C329.660767,110.842461 330.177002,110.328369 330.957520,104.885620 
	C334.980682,99.208839 338.846710,93.412376 343.060089,87.880463 
	C351.565552,76.713249 360.259766,65.689766 369.196808,54.201637 
	C369.735962,53.633347 369.890778,53.423477 369.981964,53.166653 
	C381.346832,53.119625 392.711700,53.072598 404.643433,53.506447 
	C405.350128,54.232170 405.490021,54.477016 405.629883,54.721863 
	C404.658417,56.075512 403.686951,57.429165 402.058777,58.931202 
	C399.287689,62.083153 397.173279,65.086723 395.058899,68.090294 
	C395.058899,68.090302 395.018158,68.009705 394.692444,68.049728 
	C393.264130,69.756599 392.161530,71.423454 391.058929,73.090309 
	C391.058929,73.090309 391.018097,73.009705 390.692444,73.049728 
	C389.264160,74.756615 388.161560,76.423470 387.058960,78.090317 
	C387.058929,78.090309 387.018066,78.009666 386.700867,78.047691 
	C384.275391,81.087242 382.167145,84.088768 380.058899,87.090302 
	C380.058899,87.090302 380.018158,87.009705 379.692444,87.049728 
	C378.264130,88.756607 377.161530,90.423462 376.058929,92.090317 
	C376.058929,92.090309 376.018097,92.009705 375.692413,92.049728 
	C374.264130,93.756607 373.161530,95.423462 372.058929,97.090309 
	C372.058929,97.090309 372.018066,97.009666 371.700867,97.047699 
	C369.275421,100.087257 367.167175,103.088783 365.058899,106.090302 
	C365.058899,106.090302 365.018158,106.009705 364.692444,106.049728 
	C363.264130,107.756599 362.161530,109.423454 361.058929,111.090309 
	C361.058929,111.090309 361.018066,111.009666 360.700745,111.047699 
	C358.218048,113.271919 356.052673,115.458092 353.887299,117.644272 
	C354.099945,118.082237 354.312592,118.520195 354.525238,118.958160 
	C356.388519,118.958160 358.251831,118.958160 360.115112,118.958160 
	C364.941406,124.687660 369.894897,130.315628 374.567688,136.167694 
	C384.432068,148.521622 394.154633,160.988876 403.916840,173.424194 
	C404.611298,174.308792 405.154572,175.312088 405.879578,177.062805 
	C405.961700,178.519348 405.932404,179.173248 405.903137,179.827164 
	C394.598267,179.884628 383.292786,180.010117 371.989380,179.908966 
	C370.655151,179.897034 368.893768,178.980316 368.069580,177.912506 
	C355.717987,161.909515 343.490570,145.810669 331.103241,129.041885 
	C330.060089,127.282990 329.311737,125.876686 328.154236,125.317665 
	C327.691833,125.094360 326.326660,126.740372 325.372467,127.535461 
	C326.192780,128.023209 327.013062,128.510956 327.833374,128.998703 
z"/>
<path fill="#22B07D" opacity="1.000000" stroke="none" 
	d="
M664.260010,160.642303 
	C659.801208,152.508911 657.052246,144.329529 656.944397,135.269699 
	C656.802734,123.379646 656.942078,111.703873 662.967529,100.823456 
	C671.111450,86.117577 683.072144,78.392563 700.096619,77.877884 
	C712.572815,77.500725 722.940674,81.162666 731.795166,91.440628 
	C731.795166,86.891701 731.795166,83.220566 731.795166,79.283401 
	C742.731323,79.283401 753.115295,79.283401 763.750488,79.283401 
	C763.750488,112.795448 763.750488,146.156601 763.750488,179.758987 
	C753.290588,179.758987 743.029297,179.758987 732.136475,179.758987 
	C732.136475,176.664520 732.136475,173.479279 732.136475,168.729416 
	C718.421265,181.787766 703.334961,185.079620 686.955811,179.776611 
	C677.252991,176.635178 669.478943,170.199326 664.260010,160.642303 
M725.529907,146.977707 
	C732.048584,139.766068 733.129211,131.287659 730.927917,122.249397 
	C727.375793,107.665146 710.876770,100.172684 698.107361,109.540710 
	C690.227661,115.321503 688.124573,123.865952 689.025696,133.226990 
	C689.888367,142.189468 694.301941,149.229385 702.566284,152.629013 
	C710.808960,156.019699 718.664551,154.190277 725.529907,146.977707 
z"/>
<path fill="#22B07D" opacity="1.000000" stroke="none" 
	d="
M154.813034,154.000000 
	C177.862320,155.076202 196.058716,170.699799 200.049622,192.168777 
	C203.277328,209.532089 198.583023,224.454971 185.929611,236.417389 
	C169.367142,252.075424 144.081070,253.180359 125.886955,240.299591 
	C112.165413,230.585236 106.182762,216.744034 106.029831,200.238464 
	C105.889450,185.088379 106.000000,169.935974 106.000000,154.000000 
	C122.202614,154.000000 138.269516,154.000000 154.813034,154.000000 
z"/>
<path fill="#22B07D" opacity="1.000000" stroke="none" 
	d="
M465.001343,138.000000 
	C458.849121,138.000000 453.196442,138.000000 447.513733,138.000000 
	C449.558136,154.100815 464.641754,161.091660 477.146332,151.971207 
	C477.542938,151.681961 478.205536,151.477081 478.310059,151.109436 
	C480.147552,144.648132 485.384064,146.020538 489.993439,146.006897 
	C498.258789,145.982437 506.524323,146.000000 515.314636,146.000000 
	C511.928070,158.224777 506.160614,167.934448 495.523438,174.054047 
	C476.144012,185.203049 456.563538,184.947433 437.280273,173.972748 
	C426.479645,167.825790 420.104767,157.848190 417.616302,145.963379 
	C414.069580,129.024246 414.373962,112.333389 424.929230,97.357323 
	C433.203278,85.617897 444.925140,79.462547 458.826599,78.186066 
	C468.580444,77.290405 478.439362,77.476151 487.989502,81.354149 
	C503.341003,87.587914 512.679260,98.704865 515.824036,114.657570 
	C517.275574,122.021011 516.958069,129.733200 517.488403,138.000000 
	C499.668091,138.000000 482.584503,138.000000 465.001343,138.000000 
M467.364380,103.011658 
	C455.158905,104.270157 449.225220,109.389404 447.852051,119.612305 
	C460.162262,119.612305 472.505768,119.612305 485.513672,119.612305 
	C484.387207,116.723869 483.586426,114.302139 482.518738,112.004440 
	C479.706970,105.953484 474.044617,104.350677 467.364380,103.011658 
z"/>
<path fill="#22B07D" opacity="1.000000" stroke="none" 
	d="
M990.000000,155.999985 
	C990.000000,164.133377 990.000000,171.766769 990.000000,179.698547 
	C979.287720,179.698547 968.902527,179.698547 958.000000,179.698547 
	C958.000000,169.981491 958.000000,160.373077 958.000000,150.764679 
	C958.000000,142.103638 958.109131,133.440811 957.967590,124.782074 
	C957.839539,116.945763 955.062988,109.954643 947.780640,106.587173 
	C940.974976,103.440193 933.371094,103.460747 927.551575,109.060143 
	C924.614136,111.886436 922.152954,116.007225 921.244263,119.950089 
	C919.967468,125.490150 920.103394,131.406952 920.045959,137.166733 
	C919.905273,151.279984 920.000000,165.395584 920.000000,179.752869 
	C909.630066,179.752869 899.695679,179.752869 889.379639,179.752869 
	C889.379639,146.454559 889.379639,113.079369 889.379639,79.351486 
	C899.275391,79.351486 909.328857,79.351486 919.908813,79.351486 
	C919.908813,82.986694 919.908813,86.695259 919.908813,89.538376 
	C925.865662,86.259567 931.419861,81.975388 937.701233,79.979462 
	C955.176575,74.426643 973.613037,79.217682 983.027222,94.897659 
	C986.325562,100.391296 988.244385,107.317551 988.760742,113.752686 
	C989.872803,127.612373 989.666687,141.577835 990.000000,155.999985 
z"/>
<path fill="#22B07D" opacity="1.000000" stroke="none" 
	d="
M641.000000,135.000000 
	C641.000000,156.162125 641.015625,176.824280 640.995483,197.486389 
	C640.976501,216.912994 628.644775,227.143524 610.642944,227.960144 
	C605.004822,228.215897 599.345398,228.000000 593.348633,228.000000 
	C593.348633,219.049850 593.348633,210.326202 593.348633,201.000000 
	C595.758911,201.000000 598.194519,201.010574 600.630066,200.997955 
	C607.177979,200.964035 609.896057,198.385117 609.972961,191.745743 
	C610.079163,182.582306 609.999939,173.416733 610.000000,164.252075 
	C610.000000,136.095886 610.000000,107.939690 610.000000,79.391861 
	C620.193787,79.391861 630.251709,79.391861 641.000000,79.391861 
	C641.000000,97.659340 641.000000,116.079674 641.000000,135.000000 
z"/>
<path fill="#22B07D" opacity="1.000000" stroke="none" 
	d="
M533.000000,98.000534 
	C533.000000,91.532494 533.000000,85.564346 533.000000,79.300461 
	C543.381470,79.300461 553.433777,79.300461 563.796997,79.300461 
	C563.796997,84.018112 563.796997,88.630005 563.796997,94.466476 
	C572.551331,83.985115 582.383362,77.673340 595.774109,78.049622 
	C595.774109,89.380318 595.774109,100.321579 595.774109,112.000000 
	C591.900757,112.000000 587.982849,111.968292 584.065674,112.006012 
	C572.812500,112.114365 565.495056,117.443962 565.036743,129.032990 
	C564.506409,142.444000 564.314270,155.868652 564.011169,169.288193 
	C563.936218,172.608582 564.000000,175.932098 564.000000,179.626602 
	C553.770691,179.626602 543.716553,179.626602 533.000000,179.626602 
	C533.000000,152.653488 533.000000,125.576958 533.000000,98.000534 
z"/>
<path fill="#22B07D" opacity="1.000000" stroke="none" 
	d="
M836.073730,80.282387 
	C840.699158,79.538734 845.265869,79.145203 849.839478,79.032036 
	C855.321106,78.896400 860.808655,79.000000 866.646118,79.000000 
	C866.646118,112.610252 866.646118,145.997543 866.646118,179.693039 
	C856.628479,179.693039 846.572571,179.693039 836.018066,179.693039 
	C836.018066,146.641083 836.018066,113.698875 836.073730,80.282387 
z"/>
<path fill="#22B07D" opacity="1.000000" stroke="none" 
	d="
M785.221924,153.282013 
	C793.923035,143.684235 811.470764,146.054947 816.375854,156.945786 
	C821.542114,168.416473 815.746704,180.081528 802.586853,181.938766 
	C796.741333,182.763733 791.269958,181.379639 786.324707,177.868195 
	C779.605469,173.097122 778.805786,158.983368 785.221924,153.282013 
z"/>
<path fill="#22B07D" opacity="1.000000" stroke="none" 
	d="
M618.541199,36.206612 
	C627.182495,33.781654 634.367126,35.380322 640.325500,41.796810 
	C644.750732,46.562210 645.109985,52.347279 643.356750,57.905510 
	C641.503296,63.781715 636.971680,67.387207 630.741760,69.100746 
	C624.984314,70.684311 619.746338,69.609116 614.770020,67.134010 
	C606.764832,63.152424 606.057922,55.671425 607.121704,48.093033 
	C607.985107,41.941959 612.379578,38.305481 618.541199,36.206612 
z"/>
<path fill="#22B07D" opacity="1.000000" stroke="none" 
	d="
M858.465027,36.207985 
	C866.995178,39.311359 870.732727,44.671562 870.023926,55.094734 
	C869.577209,61.663830 864.264282,67.106239 856.567505,69.048080 
	C846.528625,71.580811 838.768555,67.006836 835.385986,61.654041 
	C829.786987,52.794056 832.798706,39.338104 845.635559,36.165798 
	C849.554932,35.197235 853.921997,36.040073 858.465027,36.207985 
z"/>
<path fill="#22B07D" opacity="1.000000" stroke="none" 
	d="
M360.060852,118.620041 
	C358.251831,118.958160 356.388519,118.958160 354.525238,118.958160 
	C354.312592,118.520195 354.099945,118.082237 353.887299,117.644272 
	C356.052673,115.458092 358.218048,113.271919 360.739563,111.070862 
	C360.213013,112.569176 359.330292,114.082375 358.414856,115.651711 
	C358.852295,116.374535 359.429443,117.328224 360.060852,118.620041 
z"/>
<path fill="#22B07D" opacity="1.000000" stroke="none" 
	d="
M395.370239,67.952011 
	C397.173279,65.086723 399.287689,62.083153 401.758728,59.060608 
	C399.970795,61.965664 397.826202,64.889702 395.370239,67.952011 
z"/>
<path fill="#22B07D" opacity="1.000000" stroke="none" 
	d="
M380.370239,86.952011 
	C382.167145,84.088768 384.275391,81.087242 386.739655,78.070847 
	C384.957672,80.975220 382.819641,83.894478 380.370239,86.952011 
z"/>
<path fill="#22B07D" opacity="1.000000" stroke="none" 
	d="
M365.370300,105.952026 
	C367.167175,103.088783 369.275421,100.087257 371.739685,97.070854 
	C369.957672,99.975227 367.819641,102.894478 365.370300,105.952026 
z"/>
<path fill="#22B07D" opacity="1.000000" stroke="none" 
	d="
M330.679260,105.000183 
	C330.177002,110.328369 329.660767,110.842461 324.915375,110.216515 
	C325.911926,109.060966 326.694275,108.153801 327.789490,107.096634 
	C328.868561,106.336014 329.634796,105.725388 330.679260,105.000183 
z"/>
<path fill="#22B07D" opacity="1.000000" stroke="none" 
	d="
M327.981262,128.709015 
	C327.013062,128.510956 326.192780,128.023209 325.372467,127.535461 
	C326.326660,126.740372 327.691833,125.094360 328.154236,125.317665 
	C329.311737,125.876686 330.060089,127.282990 330.965088,128.731903 
	C330.014771,128.882736 329.071960,128.651016 327.981262,128.709015 
z"/>
<path fill="#22B07D" opacity="1.000000" stroke="none" 
	d="
M391.366028,72.955673 
	C392.161530,71.423454 393.264130,69.756599 394.731232,68.072845 
	C393.954895,69.644302 392.814026,71.232666 391.366028,72.955673 
z"/>
<path fill="#22B07D" opacity="1.000000" stroke="none" 
	d="
M361.366028,110.955666 
	C362.161530,109.423454 363.264130,107.756599 364.731232,106.072845 
	C363.954865,107.644295 362.814026,109.232658 361.366028,110.955666 
z"/>
<path fill="#22B07D" opacity="1.000000" stroke="none" 
	d="
M372.366028,96.955666 
	C373.161530,95.423462 374.264130,93.756607 375.731232,92.072845 
	C374.954865,93.644295 373.814026,95.232658 372.366028,96.955666 
z"/>
<path fill="#22B07D" opacity="1.000000" stroke="none" 
	d="
M376.366028,91.955666 
	C377.161530,90.423462 378.264130,88.756607 379.731232,87.072845 
	C378.954865,88.644287 377.813995,90.232651 376.366028,91.955666 
z"/>
<path fill="#22B07D" opacity="1.000000" stroke="none" 
	d="
M387.366058,77.955673 
	C388.161560,76.423470 389.264160,74.756615 390.731262,73.072845 
	C389.954895,74.644302 388.814026,76.232666 387.366058,77.955673 
z"/>
<path fill="#22B07D" opacity="1.000000" stroke="none" 
	d="
M406.199219,179.899765 
	C405.932404,179.173248 405.961700,178.519348 406.016785,177.375549 
	C406.995850,177.708664 407.949127,178.531647 409.393799,179.778824 
	C408.022034,179.870422 407.258667,179.921387 406.199219,179.899765 
z"/>
<path fill="#22B07D" opacity="1.000000" stroke="none" 
	d="
M405.853821,54.532871 
	C405.490021,54.477016 405.350128,54.232170 405.107635,53.576996 
	C405.555054,53.219719 406.105133,53.272774 406.655182,53.325836 
	C406.462708,53.665188 406.270233,54.004532 405.853821,54.532871 
z"/>
<path fill="#22B07D" opacity="1.000000" stroke="none" 
	d="
M297.728760,53.139984 
	C297.890778,53.423477 297.735962,53.633347 297.342041,53.887829 
	C297.269592,53.690701 297.372589,53.402008 297.728760,53.139984 
z"/>
<path fill="#22B07D" opacity="1.000000" stroke="none" 
	d="
M327.860016,53.728695 
	C327.576508,53.890793 327.366608,53.735985 327.112122,53.342072 
	C327.309204,53.269596 327.597931,53.372540 327.860016,53.728695 
z"/>
<path fill="#22B07D" opacity="1.000000" stroke="none" 
	d="
M369.728760,53.139984 
	C369.890778,53.423477 369.735962,53.633347 369.342041,53.887829 
	C369.269592,53.690697 369.372589,53.402004 369.728760,53.139984 
z"/>
<path fill="#22B07D" opacity="1.000000" stroke="none" 
	d="
M297.139954,179.271301 
	C297.423492,179.109207 297.633392,179.264008 297.887878,179.657928 
	C297.690765,179.730408 297.402069,179.627457 297.139954,179.271301 
z"/>
<path fill="#22B07D" opacity="1.000000" stroke="none" 
	d="
M327.271240,179.860016 
	C327.109161,179.576492 327.264008,179.366623 327.657959,179.112152 
	C327.730408,179.309265 327.627441,179.597977 327.271240,179.860016 
z"/>
</svg>